<?xml version="1.0" standalone="no"?>
<!DOCTYPE svg PUBLIC "-//W3C//DTD SVG 20010904//EN"
 "http://www.w3.org/TR/2001/REC-SVG-20010904/DTD/svg10.dtd">
<svg version="1.0" xmlns="http://www.w3.org/2000/svg"
 width="800.000000pt" height="933.000000pt" viewBox="0 0 800.000000 933.000000"
 preserveAspectRatio="xMidYMid meet">

<g transform="translate(0.000000,933.000000) scale(0.100000,-0.100000)"
fill="#000000" stroke="none">
<path d="M3717 9235 c-995 -121 -1878 -829 -2416 -1940 -249 -512 -409 -1087
-478 -1715 -26 -234 -26 -923 0 -1150 19 -166 68 -476 91 -575 8 -33 13 -61
11 -63 -5 -5 -186 40 -259 64 -125 43 -148 80 -154 252 -2 67 -6 122 -8 122
-3 0 -39 -17 -82 -39 -234 -118 -341 -278 -342 -512 0 -96 19 -161 70 -232 48
-67 106 -103 181 -115 39 -6 53 -12 50 -23 -21 -84 -8 -143 42 -185 30 -25 31
-28 31 -112 1 -82 4 -95 60 -232 70 -174 238 -523 325 -675 94 -163 297 -464
404 -598 591 -739 1330 -1219 2129 -1381 232 -47 365 -60 628 -60 329 0 573
34 867 118 1134 326 2105 1292 2627 2614 57 144 68 196 53 263 -6 32 -4 37 18
49 54 29 81 117 56 182 -9 23 -6 25 60 40 78 19 114 41 160 99 54 69 79 142
79 239 0 248 -111 411 -352 523 l-78 36 0 -102 c0 -185 -29 -230 -173 -276
-105 -33 -236 -65 -242 -60 -2 2 3 31 10 64 25 108 63 346 86 530 27 228 38
771 20 1018 -107 1469 -768 2745 -1763 3403 -448 297 -935 446 -1443 443 -88
-1 -209 -7 -268 -14z m653 -129 c737 -127 1384 -568 1887 -1286 691 -987 975
-2370 758 -3699 -223 -1365 -960 -2498 -1940 -2981 -254 -125 -471 -195 -736
-237 -160 -25 -519 -25 -679 0 -927 146 -1736 812 -2247 1852 -478 972 -622
2189 -393 3325 327 1626 1367 2828 2615 3024 153 24 154 24 405 21 159 -2 266
-8 330 -19z m-3946 -5087 c10 -104 56 -178 134 -218 49 -25 174 -63 294 -91
68 -16 99 -27 102 -39 3 -9 21 -72 40 -141 366 -1310 1204 -2303 2226 -2640
275 -91 487 -125 785 -124 232 0 367 15 570 64 1033 247 1909 1155 2346 2429
33 97 75 232 93 301 l33 124 124 31 c287 73 349 109 391 229 9 28 17 70 18 94
0 23 4 42 9 42 5 0 35 -20 68 -44 108 -81 161 -185 170 -332 10 -146 -46 -245
-156 -278 -62 -18 -201 -21 -281 -6 -29 6 -55 8 -57 6 -2 -2 21 -17 51 -34
136 -77 190 -167 123 -204 -30 -16 -151 -12 -212 6 -27 8 -51 14 -53 12 -1 -2
27 -20 63 -41 37 -20 86 -56 111 -79 81 -78 69 -123 -176 -632 -443 -922
-1151 -1653 -1952 -2016 -421 -190 -829 -279 -1283 -280 -281 0 -478 23 -735
87 -806 200 -1516 708 -2083 1488 -180 247 -342 531 -509 890 -104 223 -138
316 -138 374 0 42 4 51 43 87 24 23 73 59 110 80 37 21 66 40 64 42 -1 2 -25
-4 -52 -12 -61 -18 -182 -22 -212 -6 -67 37 -13 127 123 204 30 17 53 32 51
34 -2 2 -28 0 -57 -6 -80 -15 -219 -12 -281 6 -110 33 -166 132 -156 278 9
147 62 251 170 332 33 24 62 44 67 44 4 0 10 -27 14 -61z"/>
<path d="M3795 8994 c-16 -2 -66 -9 -110 -15 -109 -14 -267 -52 -400 -96 -702
-232 -1322 -819 -1734 -1643 -495 -989 -635 -2208 -387 -3362 256 -1186 919
-2158 1778 -2602 667 -345 1402 -353 2074 -21 271 133 502 302 739 540 675
675 1093 1664 1186 2805 15 188 15 636 0 815 -60 702 -222 1295 -509 1859
-193 379 -424 699 -703 972 -412 401 -865 641 -1379 729 -91 16 -483 29 -555
19z m-506 -820 c17 -4 31 -11 31 -16 0 -5 -34 -43 -75 -84 -52 -52 -94 -84
-138 -104 -60 -28 -201 -59 -213 -47 -12 12 54 133 95 175 59 60 110 82 197
82 39 0 86 -3 103 -6z m1643 -20 c40 -14 87 -39 103 -55 39 -37 51 -36 71 4
19 37 43 67 55 67 4 0 13 -25 19 -56 7 -31 18 -71 26 -90 19 -45 19 -114 0
-114 -8 0 -21 -3 -29 -6 -11 -4 -17 2 -20 23 -4 27 -4 27 -6 -4 0 -18 -4 -33
-8 -33 -4 0 -50 42 -103 93 l-95 92 93 -95 c50 -53 92 -99 92 -103 0 -4 -15
-8 -32 -8 -31 -2 -31 -2 -5 -6 31 -5 30 -3 17 -37 -8 -21 -16 -26 -45 -26 -20
0 -51 6 -69 14 -19 8 -59 19 -90 26 -31 6 -56 15 -56 19 0 12 30 36 68 55 39
20 40 32 3 71 -38 40 -95 195 -72 195 5 0 43 -12 83 -26z m-2064 -89 c2 -95 0
-110 -23 -155 -14 -28 -48 -74 -76 -103 -47 -49 -51 -51 -64 -34 -7 10 -19 49
-25 85 -14 79 -5 124 39 194 28 44 113 117 136 118 7 0 12 -41 13 -105z m1078
-92 c-11 -28 -8 -176 5 -229 30 -125 125 -274 246 -383 94 -85 148 -111 217
-104 66 7 119 -16 136 -57 14 -33 6 -83 -16 -101 -21 -18 -17 -26 18 -33 17
-3 40 -14 50 -23 22 -19 24 -81 4 -108 -12 -17 -10 -21 18 -40 24 -16 32 -29
34 -57 2 -21 -2 -47 -9 -59 -10 -19 -8 -25 9 -38 33 -25 42 -61 26 -106 -12
-37 -12 -40 18 -73 39 -45 34 -90 -16 -141 -25 -26 -39 -54 -51 -101 -46 -184
-136 -393 -232 -540 -66 -100 -165 -191 -253 -232 -38 -18 -71 -38 -74 -44 -2
-6 13 -33 34 -60 52 -64 64 -121 64 -279 0 -140 -13 -188 -70 -262 -24 -32
-27 -33 -103 -33 l-79 0 -35 39 c-33 37 -57 92 -57 133 0 24 49 78 70 78 39 0
29 20 -22 44 -60 29 -98 77 -98 123 0 44 36 123 71 155 16 15 29 31 29 36 0 5
-27 12 -59 16 -76 9 -119 38 -150 100 -22 45 -23 51 -10 75 12 22 23 26 68 29
42 2 64 -2 103 -23 66 -35 94 -29 180 35 110 83 179 198 197 326 10 71 0 174
-23 229 -31 74 -157 236 -411 529 -137 159 -166 207 -172 289 -4 56 -1 69 30
130 l34 69 -19 61 c-11 34 -22 100 -25 147 -4 70 -1 96 17 149 39 117 146 253
254 325 45 30 61 33 52 9z m-1394 -210 c20 -56 21 -67 11 -117 -13 -63 -59
-170 -79 -187 -10 -8 -20 -1 -43 37 -44 69 -65 138 -57 192 8 60 45 139 87
186 l33 39 13 -44 c6 -24 22 -72 35 -106z m2882 126 c32 -26 33 -42 1 -83 -14
-18 -25 -38 -25 -44 0 -20 -19 -23 -43 -7 -13 8 -51 26 -85 39 -79 31 -81 28
-56 -130 l4 -31 -77 1 c-75 2 -78 2 -87 29 -13 35 -1 56 42 78 17 9 29 19 26
22 -3 3 -6 23 -6 43 0 52 37 84 96 84 23 0 51 -6 61 -14 17 -12 22 -11 42 10
28 30 71 31 107 3z m-2314 -54 c30 -8 73 -15 95 -15 l40 -1 -48 -44 c-27 -25
-79 -59 -115 -77 -85 -41 -170 -44 -279 -10 -40 12 -73 25 -73 28 0 21 62 79
113 104 51 26 71 30 136 30 42 0 101 -7 131 -15z m2400 -222 c14 -9 27 -20 31
-25 3 -4 23 1 44 12 43 22 68 19 102 -13 39 -35 37 -50 -17 -105 l-49 -51 -28
23 c-60 50 -138 95 -146 87 -5 -5 -12 -50 -15 -100 -4 -78 -7 -91 -21 -87 -68
20 -105 26 -119 21 -19 -7 -32 11 -32 49 0 38 26 66 62 66 26 0 28 3 28 41 0
81 93 128 160 82z m-3185 -128 c47 -89 47 -90 42 -165 -5 -69 -28 -151 -48
-174 -15 -16 -75 52 -104 117 -23 50 -27 70 -22 117 3 32 15 79 26 106 24 53
51 98 56 92 2 -1 24 -43 50 -93z m561 -9 c-34 -57 -113 -138 -169 -170 -23
-14 -73 -30 -110 -37 -66 -11 -170 -9 -183 4 -15 14 23 86 71 133 63 63 133
89 276 99 52 4 103 11 114 15 30 11 30 5 1 -44z m2821 -163 c12 -8 25 -24 29
-35 4 -13 11 -17 22 -12 42 18 69 15 95 -8 14 -12 29 -35 32 -49 6 -24 2 -29
-38 -48 -25 -12 -51 -28 -57 -36 -10 -13 -17 -9 -40 23 -15 20 -44 55 -64 77
-35 39 -36 40 -51 20 -9 -11 -25 -50 -36 -87 -12 -38 -22 -68 -24 -68 -2 0
-23 11 -46 25 -24 14 -54 25 -66 25 -19 0 -23 6 -23 30 0 44 34 74 76 67 30
-5 34 -3 34 16 0 29 26 66 54 77 25 11 72 3 103 -17z m-3627 -83 c0 -6 24 -37
54 -69 86 -94 91 -107 91 -248 0 -67 -3 -124 -7 -128 -12 -12 -74 33 -126 90
-59 65 -77 118 -70 213 6 67 33 152 49 152 5 0 9 -5 9 -10z m587 -173 c-72
-151 -157 -220 -309 -251 -108 -22 -109 -22 -102 17 25 148 121 237 310 287
42 12 89 27 103 35 39 20 39 -3 -2 -88z m3101 -37 c18 -11 37 -31 43 -44 10
-21 15 -23 36 -15 38 14 53 11 84 -20 30 -31 41 -91 16 -91 -6 0 -34 -12 -61
-26 -26 -14 -49 -24 -50 -22 -46 67 -98 137 -109 146 -13 11 -21 2 -51 -59
-20 -39 -36 -78 -36 -85 0 -20 -14 -17 -56 11 -21 14 -48 28 -61 31 -31 8 -30
48 3 80 21 22 31 25 60 20 30 -6 34 -4 34 14 0 32 53 80 87 80 15 0 43 -9 61
-20z m-3818 -203 c10 -12 46 -42 81 -65 98 -67 136 -140 146 -286 l6 -78 -24
7 c-145 43 -235 150 -247 291 -5 61 4 154 15 154 3 0 13 -10 23 -23z m676
-179 c-25 -98 -90 -221 -139 -263 -48 -41 -185 -112 -236 -122 l-34 -6 5 80
c9 149 93 260 264 344 44 22 96 53 115 68 l34 29 3 -34 c2 -19 -4 -62 -12 -96z
m3210 -6 c15 -32 24 -71 24 -102 0 -27 4 -52 10 -55 5 -3 34 2 65 11 37 12 61
15 75 8 19 -9 19 -11 -19 -64 -21 -30 -42 -66 -46 -80 -4 -14 -14 -36 -22 -48
l-15 -24 -24 23 -23 22 28 36 c46 60 47 69 2 19 -37 -42 -48 -48 -82 -48 l-38
0 -4 148 -3 147 -2 -150 -2 -151 -28 -16 c-24 -14 -30 -15 -55 -2 -15 8 -39
13 -53 12 -21 -3 -28 3 -38 32 -7 19 -29 58 -50 87 l-37 52 25 7 c14 3 47 -1
75 -11 28 -9 55 -14 61 -10 5 3 10 27 10 53 0 35 12 71 47 144 l46 98 25 -43
c13 -23 35 -66 48 -95z m-3935 -229 c9 -8 46 -25 82 -38 88 -32 110 -48 153
-112 36 -55 90 -190 80 -200 -13 -13 -122 11 -178 40 -98 50 -156 145 -173
281 -8 62 -5 64 36 29z m753 -161 c-1 -112 -18 -202 -53 -269 -35 -70 -213
-223 -258 -223 -18 0 -33 65 -33 142 0 127 64 234 208 351 41 33 83 75 95 93
14 21 25 30 32 23 5 -5 9 -58 9 -117z m3190 63 c40 -19 66 -62 66 -109 0 -33
2 -36 28 -36 56 0 96 -74 69 -126 -13 -26 -18 -27 -84 -28 l-70 -1 -16 104
c-9 57 -19 106 -21 109 -8 7 -76 -38 -122 -81 l-42 -38 -30 54 c-16 29 -37 59
-46 66 -22 18 -20 28 10 56 33 31 70 32 102 3 22 -22 24 -22 34 -5 9 17 60 46
81 47 5 0 23 -7 41 -15z m-3924 -315 c11 -6 55 -17 99 -24 105 -19 142 -38
205 -107 54 -61 114 -164 102 -177 -4 -4 -42 -7 -84 -6 -106 0 -174 25 -232
83 -47 47 -103 149 -115 209 -7 35 -4 37 25 22z m3720 -39 l29 -29 40 20 c81
40 151 -14 151 -118 0 -42 3 -54 15 -54 9 0 27 -11 40 -25 31 -30 34 -92 7
-125 -17 -22 -19 -22 -72 -6 -29 9 -63 16 -75 16 -20 0 -21 3 -14 48 4 26 8
77 8 114 l1 67 -57 -20 c-32 -11 -75 -31 -95 -44 -21 -14 -39 -25 -42 -25 -2
0 -9 21 -15 48 -7 26 -21 61 -31 79 -18 31 -18 31 3 51 44 39 70 40 107 3z
m-2834 -78 c22 -68 30 -257 14 -323 -16 -66 -91 -179 -165 -249 l-57 -54 -19
29 c-31 51 -52 151 -45 224 7 84 64 202 138 287 30 34 65 85 78 113 26 56 30
55 56 -27z m2721 -245 c13 -12 23 -30 23 -40 0 -19 15 -24 25 -8 8 13 91 13
116 0 42 -23 63 -109 38 -164 -10 -21 -8 -27 22 -54 28 -25 34 -37 34 -70 0
-66 -62 -117 -95 -78 -6 8 -34 22 -61 31 l-49 17 15 27 c13 26 55 173 55 194
0 13 -101 -1 -164 -23 l-53 -18 -6 68 c-3 38 -11 78 -16 89 -25 45 73 70 116
29z m-3207 -122 c56 -29 180 -140 180 -161 0 -19 -108 -45 -183 -45 -83 0
-147 29 -217 99 -38 38 -90 115 -90 133 0 2 57 3 128 2 119 0 130 -2 182 -28z
m760 -70 c50 -107 74 -217 68 -311 -4 -60 -13 -90 -46 -158 -22 -47 -57 -108
-79 -137 l-38 -51 -32 37 c-45 51 -73 113 -86 188 -16 95 7 190 83 341 33 66
63 135 66 152 4 18 11 30 17 26 5 -3 27 -42 47 -87z m2273 -146 c14 -11 28
-33 31 -48 6 -25 10 -27 62 -27 50 0 58 -3 85 -33 23 -26 29 -41 29 -80 0 -28
-7 -59 -19 -77 -18 -30 -18 -30 6 -56 48 -52 32 -142 -32 -171 -21 -9 -29 -7
-60 20 -19 18 -49 39 -65 47 -36 18 -36 19 -9 56 31 44 81 160 75 175 -6 16
-112 19 -181 5 l-40 -7 0 98 c0 95 1 98 25 107 40 15 66 12 93 -9z m-2806
-155 c77 -36 193 -121 193 -141 0 -14 -99 -59 -160 -73 -25 -6 -66 -11 -92
-11 -108 0 -255 93 -330 209 l-17 26 57 2 c31 0 82 8 112 17 78 23 147 14 237
-29z m2673 -122 c0 -5 -16 -57 -37 -117 -29 -85 -46 -118 -80 -156 -24 -26
-43 -53 -43 -59 0 -6 25 -22 55 -36 61 -29 105 -74 83 -86 -7 -4 -46 -12 -87
-19 -40 -7 -89 -21 -107 -32 -22 -13 -54 -20 -95 -21 -58 -2 -62 0 -90 33 -16
19 -29 40 -29 46 0 7 -19 23 -42 36 -23 13 -48 34 -55 48 -17 31 -8 111 17
160 9 20 23 69 30 110 7 41 16 79 20 83 13 14 59 -33 85 -88 14 -30 31 -55 37
-55 7 0 31 19 55 42 33 33 63 49 150 79 112 39 133 44 133 32z m-1199 -1693
c3 -19 17 -73 29 -120 16 -61 23 -112 23 -180 -1 -89 -9 -136 -48 -280 -21
-78 -19 -211 5 -301 39 -145 42 -165 42 -269 0 -85 -6 -122 -28 -195 -18 -61
-28 -121 -32 -186 -4 -97 1 -133 39 -269 24 -89 29 -245 9 -332 l-13 -58 -52
0 -52 0 13 52 c8 29 14 100 14 159 0 87 -5 123 -27 195 -19 65 -27 119 -31
199 -4 100 -1 122 27 226 43 160 43 279 1 434 -23 86 -30 131 -30 205 0 74 7
119 30 205 40 145 41 277 6 410 -13 50 -27 103 -30 118 l-7 28 53 -3 c52 -3
53 -4 59 -38z m419 -185 l0 -225 225 0 225 0 0 225 0 225 225 0 225 0 0 -225
0 -225 225 0 225 0 0 225 0 225 225 0 225 0 0 -225 0 -225 65 0 c42 0 65 -4
65 -11 0 -7 -28 -65 -62 -131 l-63 -119 -3 131 -3 130 -224 0 -225 0 0 -225 0
-225 170 0 171 0 -59 -87 c-160 -238 -454 -562 -647 -713 l-80 -63 -3 207 -2
206 -225 0 -225 0 0 -225 0 -225 198 0 197 -1 -25 -20 c-47 -39 -344 -209
-365 -209 -3 0 -5 52 -5 115 l0 115 -225 0 -225 0 -2 -192 -3 -193 -70 -13
c-38 -7 -103 -16 -143 -20 l-74 -8 6 30 c22 109 16 312 -11 382 -4 12 21 14
146 14 l151 0 0 225 0 225 -144 0 -144 0 9 38 c22 95 4 293 -36 395 -7 16 5
17 154 17 l161 0 0 225 0 225 -134 0 -134 0 -4 128 c-4 89 -11 146 -26 192
-11 36 -23 80 -27 98 l-7 32 166 0 166 0 0 -225z m-2130 -225 c92 -28 120 -32
225 -33 109 -1 131 2 235 33 106 32 126 34 250 35 122 0 148 -3 270 -34 121
-31 149 -35 270 -35 121 0 184 7 274 30 27 6 28 5 23 -22 -2 -16 -15 -67 -27
-113 -18 -69 -21 -104 -18 -197 l3 -113 -65 -10 c-182 -28 -304 -22 -480 26
-67 18 -130 27 -215 30 -124 5 -145 2 -325 -47 -54 -15 -106 -21 -185 -21 -95
0 -129 5 -250 36 -135 35 -145 36 -265 31 -69 -3 -141 -8 -161 -12 l-37 -6
-50 84 c-55 91 -162 291 -162 301 0 4 10 7 23 7 12 0 76 13 142 29 66 16 131
32 145 34 14 3 81 4 150 2 106 -3 141 -8 230 -35z m985 -901 c120 -30 142 -33
275 -32 89 1 170 7 210 16 36 8 66 14 66 13 1 0 -7 -35 -18 -76 -16 -62 -18
-96 -14 -195 2 -66 8 -132 11 -146 7 -26 6 -26 -72 -37 -198 -28 -303 -23
-473 24 -71 19 -129 27 -225 31 -121 4 -138 3 -243 -25 l-114 -30 -101 76
c-129 98 -439 403 -415 409 9 2 68 -10 130 -28 98 -28 128 -33 228 -33 99 0
131 5 225 32 148 41 143 41 280 38 97 -3 145 -10 250 -37z"/>
<path d="M5153 8035 c0 -22 2 -30 4 -17 2 12 2 30 0 40 -3 9 -5 -1 -4 -23z"/>
<path d="M4968 7863 c12 -2 30 -2 40 0 9 3 -1 5 -23 4 -22 0 -30 -2 -17 -4z"/>
<path d="M4407 7198 c-9 -7 -19 -25 -22 -40 -5 -21 -1 -33 19 -52 14 -15 34
-26 46 -26 50 0 80 79 42 113 -22 20 -62 22 -85 5z"/>
<path d="M4465 7015 c-14 -13 -25 -33 -25 -45 0 -29 35 -60 68 -60 57 0 83 69
42 110 -27 27 -56 25 -85 -5z"/>
<path d="M4507 6862 c-25 -27 -22 -78 5 -96 32 -23 55 -20 84 10 20 19 24 31
19 52 -12 51 -75 71 -108 34z"/>
<path d="M4540 6700 c-40 -40 -11 -110 45 -110 32 0 65 33 65 65 0 32 -33 65
-65 65 -14 0 -34 -9 -45 -20z"/>
<path d="M4557 6542 c-34 -38 -15 -95 35 -107 21 -5 33 -1 52 19 15 14 26 34
26 46 0 50 -79 80 -113 42z"/>
<path d="M5618 6405 c6 -11 32 -40 58 -65 l48 -45 -49 55 c-66 75 -69 78 -57
55z"/>
<path d="M4957 4753 c-120 -120 -149 -145 -158 -133 -8 12 -9 10 -7 -10 2 -19
9 -25 28 -27 17 -1 19 0 6 4 -15 4 11 35 135 159 85 85 152 154 149 154 -3 0
-72 -66 -153 -147z"/>
<path d="M4792 4850 c0 -14 2 -19 5 -12 2 6 2 18 0 25 -3 6 -5 1 -5 -13z"/>
<path d="M4784 4730 c0 -52 1 -74 3 -47 2 26 2 68 0 95 -2 26 -3 4 -3 -48z"/>
<path d="M4940 4580 l-95 -6 90 -1 c50 0 104 3 120 7 36 9 27 9 -115 0z"/>
<path d="M4900 2685 l0 -225 -225 0 -225 0 0 -225 0 -225 225 0 225 0 0 225 0
225 225 0 225 0 0 -225 0 -225 225 0 225 0 0 225 0 225 -225 0 -225 0 0 225 0
225 -225 0 -225 0 0 -225z"/>
<path d="M6915 2973 c-8 -20 -14 -37 -13 -38 2 -1 33 -14 71 -30 37 -15 67
-29 67 -31 0 -13 -61 -134 -68 -134 -5 0 -35 11 -66 25 -31 14 -61 25 -65 25
-13 0 -33 -62 -24 -71 9 -9 334 -149 345 -149 12 0 40 62 31 70 -4 4 -38 20
-75 35 -38 15 -68 32 -68 36 0 5 12 38 26 73 l27 64 79 -34 79 -33 16 34 c9
19 15 37 12 39 -5 5 -349 156 -355 156 -2 0 -11 -16 -19 -37z"/>
<path d="M872 2934 c-120 -59 -152 -176 -81 -291 25 -39 85 -93 105 -93 30 0
146 60 141 72 -29 72 -61 138 -68 138 -4 0 -19 -4 -33 -10 -25 -9 -25 -9 -9
-50 14 -36 15 -43 2 -51 -24 -15 -36 -10 -68 26 -57 65 -36 142 50 185 43 22
106 26 129 7 48 -37 64 -103 36 -143 -13 -18 -12 -23 9 -50 23 -29 23 -29 44
-10 31 28 45 84 33 130 -41 145 -162 204 -290 140z"/>
<path d="M6744 2599 c-8 -17 -12 -35 -7 -39 4 -4 82 -46 173 -93 l166 -86 19
35 c10 19 16 36 14 38 -9 7 -337 176 -342 176 -4 0 -14 -14 -23 -31z"/>
<path d="M1080 2509 c-91 -51 -167 -93 -169 -95 -3 -3 83 -168 121 -231 19
-32 20 -32 49 -18 l29 16 -50 93 c-27 51 -50 96 -50 99 0 12 82 49 90 40 5 -4
25 -39 46 -78 20 -38 39 -72 40 -74 3 -4 64 19 64 24 0 1 -21 40 -46 86 -44
79 -45 84 -27 97 47 35 51 34 78 -13 14 -25 36 -65 50 -90 27 -48 39 -53 68
-31 17 13 14 22 -50 140 -37 69 -70 126 -73 126 -3 0 -79 -41 -170 -91z"/>
<path d="M6663 2423 c-19 -15 -135 -194 -130 -199 13 -12 329 -194 336 -194
10 0 46 59 39 65 -2 1 -28 17 -58 36 -30 18 -56 34 -58 35 -2 1 10 29 27 61
45 85 40 146 -16 187 -37 27 -112 32 -140 9z m108 -100 c7 -18 3 -35 -16 -73
l-25 -49 -45 27 c-25 15 -45 30 -45 34 0 4 10 23 22 43 33 58 90 67 109 18z"/>
<path d="M1278 2162 c-87 -59 -159 -110 -162 -113 -3 -3 5 -17 17 -32 l22 -28
120 82 c66 45 113 73 105 63 -8 -11 -52 -61 -97 -111 -46 -51 -83 -96 -83
-100 0 -5 10 -20 23 -35 l22 -27 135 50 c74 27 136 49 139 49 2 0 -49 -37
-115 -81 -65 -45 -120 -82 -121 -83 -1 -1 8 -15 21 -31 l24 -29 161 109 c179
121 166 101 115 180 -9 14 -21 25 -28 25 -6 0 -60 -18 -119 -40 -60 -22 -113
-40 -119 -40 -5 0 21 35 58 78 38 42 77 87 87 99 20 22 19 22 -13 73 -18 27
-33 50 -34 50 0 -1 -72 -49 -158 -108z"/>
<path d="M6387 2016 l-27 -35 112 -175 c62 -97 116 -176 119 -176 3 0 15 14
28 31 l23 30 -27 40 c-28 43 -29 41 27 115 l39 52 44 -14 45 -13 26 35 c15 19
25 36 23 38 -2 1 -89 24 -193 50 -104 26 -194 50 -201 52 -7 3 -24 -11 -38
-30z m158 -82 l65 -16 -32 -44 -31 -44 -22 33 c-47 69 -57 87 -51 87 4 0 36
-7 71 -16z"/>
<path d="M1715 1776 c-33 -12 -122 -44 -198 -71 l-139 -48 31 -31 c29 -28 33
-29 64 -18 51 18 59 15 106 -44 l44 -55 -20 -43 -21 -42 28 -34 27 -33 58 109
c32 60 75 142 96 182 22 41 39 79 39 86 0 7 -12 24 -27 38 l-28 26 -60 -22z
m-17 -136 c-18 -33 -36 -60 -39 -60 -8 0 -62 70 -58 74 6 5 113 45 122 45 5 1
-6 -26 -25 -59z"/>
<path d="M6118 1679 c-49 -50 -88 -95 -88 -99 0 -9 278 -260 289 -260 4 0 17
13 29 29 l21 29 -58 55 -58 56 21 20 c25 24 59 26 155 10 l64 -10 28 33 c15
18 24 37 19 41 -4 5 -50 11 -103 14 l-95 6 9 24 c17 45 10 74 -25 109 -28 28
-41 34 -77 34 -42 0 -47 -3 -131 -91z m156 -8 c22 -25 16 -45 -33 -101 l-38
-44 -36 29 c-19 17 -36 33 -36 36 -1 3 17 27 40 53 45 51 75 58 103 27z"/>
<path d="M1895 1488 c-44 -46 -105 -109 -135 -141 l-54 -57 27 -27 27 -27 63
62 63 62 54 -55 54 -55 -59 -60 -59 -60 24 -25 c13 -14 29 -24 36 -23 14 3
264 266 264 277 0 4 -11 18 -25 31 l-25 24 -54 -53 -54 -54 -56 48 c-63 53
-63 47 8 122 l40 43 -24 25 c-13 14 -26 25 -29 25 -4 0 -42 -37 -86 -82z"/>
<path d="M5798 1369 c-16 -12 -28 -24 -28 -29 0 -4 20 -33 45 -63 l45 -55 -36
-31 c-19 -17 -46 -39 -60 -48 -25 -16 -26 -16 -52 18 -15 18 -36 45 -48 58
l-21 24 -31 -23 c-26 -19 -29 -26 -19 -40 37 -52 231 -290 236 -290 3 1 18 11
33 23 l27 22 -49 64 c-28 35 -50 67 -50 71 0 8 103 90 113 90 3 0 27 -27 53
-60 26 -33 52 -60 59 -60 6 0 21 11 34 23 l22 24 -111 139 c-144 179 -129 167
-162 143z"/>
<path d="M2317 1041 c-53 -82 -99 -156 -103 -164 -3 -9 6 -23 25 -36 l30 -22
43 65 c24 36 48 66 55 66 6 0 21 -12 32 -26 18 -22 21 -41 21 -114 l0 -87 41
-28 41 -27 -3 109 -4 108 36 -3 c46 -5 75 10 99 51 26 42 25 78 -2 112 -20 25
-191 145 -207 145 -4 0 -50 -67 -104 -149z m188 19 c51 -35 64 -55 57 -82 -9
-37 -42 -38 -104 -5 -32 18 -58 35 -58 39 0 13 44 78 53 78 5 0 28 -14 52 -30z"/>
<path d="M5385 1069 c-62 -39 -109 -76 -109 -84 2 -15 167 -290 189 -313 10
-11 33 0 121 54 143 88 141 86 120 118 l-16 26 -89 -55 c-49 -30 -91 -55 -94
-55 -5 0 -57 77 -57 84 0 2 30 22 68 45 37 22 74 45 82 50 12 8 12 13 0 35 -7
14 -18 26 -23 26 -5 0 -42 -21 -83 -46 -40 -25 -78 -43 -84 -39 -5 3 -17 19
-25 35 -14 28 -14 29 23 51 146 89 143 87 126 114 -9 14 -21 25 -28 24 -6 0
-60 -32 -121 -70z"/>
<path d="M2676 809 l-89 -172 24 -18 c13 -10 29 -19 36 -19 11 0 183 319 183
340 0 8 -50 40 -62 40 -2 0 -43 -77 -92 -171z"/>
<path d="M5028 882 c-48 -20 -90 -40 -93 -44 -6 -5 137 -340 152 -357 2 -3 19
3 38 12 l35 17 -26 57 c-14 32 -28 63 -30 69 -3 5 23 23 57 39 34 17 70 41 80
54 36 45 18 139 -33 175 -35 25 -86 19 -180 -22z m145 -64 c19 -29 0 -63 -48
-86 -25 -12 -48 -22 -51 -22 -6 0 -46 92 -41 96 1 2 22 12 46 23 46 20 77 17
94 -11z"/>
<path d="M2847 733 c-36 -93 -69 -175 -72 -183 -4 -11 4 -19 28 -28 18 -7 36
-12 38 -12 3 0 16 29 29 65 13 36 27 65 31 65 3 0 32 -9 64 -20 74 -25 106
-25 139 1 57 45 72 133 31 179 -15 16 -138 74 -201 94 -18 6 -26 -9 -87 -161z
m192 42 c16 -8 32 -24 36 -35 7 -23 -8 -55 -31 -64 -18 -7 -114 21 -114 32 0
4 7 28 17 54 18 51 20 51 92 13z"/>
<path d="M4720 770 c-69 -20 -130 -38 -136 -41 -8 -3 7 -66 42 -188 30 -101
56 -186 58 -188 4 -4 275 73 283 81 9 9 -10 56 -24 56 -8 0 -55 -12 -104 -26
-50 -14 -92 -24 -95 -22 -2 3 -10 25 -18 50 l-13 46 90 26 c49 14 92 27 94 29
2 3 1 16 -3 31 -8 32 -17 32 -119 2 l-80 -24 -12 41 c-7 22 -12 41 -10 42 1 1
46 14 100 30 96 28 98 29 92 54 -4 14 -9 29 -13 32 -4 3 -63 -11 -132 -31z"/>
<path d="M3216 588 c-64 -90 -116 -167 -116 -173 -1 -5 15 -14 36 -19 29 -7
39 -5 45 6 4 8 17 25 27 39 l20 23 76 -18 76 -18 0 -36 c0 -21 4 -42 8 -48 8
-13 82 -36 82 -26 0 4 -12 98 -27 210 l-27 202 -35 10 c-20 5 -39 10 -43 10
-3 0 -58 -73 -122 -162z m146 -36 c4 -41 2 -52 -8 -48 -7 3 -29 8 -48 12 -20
3 -36 8 -36 10 0 2 17 29 37 60 42 63 46 60 55 -34z"/>
<path d="M3606 648 c-3 -24 -10 -97 -16 -163 -6 -66 -13 -134 -15 -152 -5 -30
-4 -32 30 -39 20 -3 39 -4 42 -1 3 4 9 40 13 82 4 42 10 78 13 81 3 4 38 3 77
-1 l71 -7 -7 -89 -7 -89 40 0 39 0 18 191 c10 105 16 193 13 195 -2 3 -20 7
-39 11 l-35 5 -8 -76 -7 -76 -41 0 c-23 0 -58 3 -77 6 l-36 6 8 71 c4 39 5 74
2 79 -3 4 -20 8 -39 8 -32 0 -34 -2 -39 -42z"/>
<path d="M4260 678 c-41 -6 -76 -11 -78 -13 -2 -1 9 -85 23 -186 14 -100 25
-186 25 -191 0 -4 18 -8 40 -8 37 0 40 2 35 22 -3 13 -6 50 -8 83 -2 59 -2 60
27 63 25 3 39 -6 95 -67 54 -58 72 -71 96 -70 73 1 73 10 -7 92 -61 63 -71 78
-57 82 34 11 59 55 59 102 0 36 -6 50 -29 74 -26 26 -36 29 -88 28 -32 -1 -92
-6 -133 -11z m168 -92 c5 -38 -12 -54 -66 -61 -26 -4 -54 -9 -63 -11 -13 -4
-18 6 -24 42 -3 25 -4 48 -1 51 9 9 111 19 131 13 12 -5 21 -18 23 -34z"/>
</g>
</svg>
